# xmcd CD database file
#
# Track frame offsets:
#	182
#	15312
#	31560
#	43330
#	62860
#	83292
#	103517
#	124462
#	139832
#	158722
#	180095
#	194900
#	215167
#	229115
#	243827
#
# Disc length: 3529 seconds
#
# Revision: 1
# Processed by: cddbd v1.5.1PL0 Copyright (c) Steve Scherf et al.
# Submitted via: CDex 1.51
#
DISCID=c30dc70f
DTITLE=Christian Dozzler and The Blues Wave - Take It Easy
DYEAR=1994
DGENRE=Blues
TTITLE0=Take It Easy
TTITLE1=Cheatin' On Your Backdoor Man
TTITLE2=Louisiana Bound
TTITLE3=Ain't Nobody's Business
TTITLE4=I Can't Judge Nobody
TTITLE5=You're Gonna Need My Help
TTITLE6=Hold Me Baby
TTITLE7=Don't You Know
TTITLE8=The Moods
TTITLE9=Find Your Good Man Gone
TTITLE10=I'm Mean
TTITLE11=Danger Zone
TTITLE12=Dynamite
TTITLE13=Night Life Is Killing Me
TTITLE14=Low Tide
EXTD=YEAR: 1994
EXTT0=
EXTT1=
EXTT2=
EXTT3=
EXTT4=
EXTT5=
EXTT6=
EXTT7=
EXTT8=
EXTT9=
EXTT10=
EXTT11=
EXTT12=
EXTT13=
EXTT14=
PLAYORDER=
